<svg xmlns="http://www.w3.org/2000/svg" width="56" height="56" fill="none"><path fill="#5B5B5B" d="M20.02 9h15.96C42.06 9 47 13.94 47 20.02v15.96A11.02 11.02 0 0 1 35.98 47H20.02C13.94 47 9 42.06 9 35.98V20.02A11.02 11.02 0 0 1 20.02 9m-.38 3.8a6.84 6.84 0 0 0-6.84 6.84v16.72a6.836 6.836 0 0 0 6.84 6.84h16.72a6.84 6.84 0 0 0 6.84-6.84V19.64a6.836 6.836 0 0 0-6.84-6.84zm18.335 2.85a2.375 2.375 0 1 1 0 4.75 2.375 2.375 0 0 1 0-4.75M28 18.5a9.5 9.5 0 1 1 0 19 9.5 9.5 0 0 1 0-19m0 3.8a5.7 5.7 0 1 0 0 11.4 5.7 5.7 0 0 0 0-11.4"/></svg>